<?xml version="1.0" encoding="utf-8"?>
<!-- Generator: Adobe Illustrator 24.0.2, SVG Export Plug-In . SVG Version: 6.00 Build 0)  -->
<svg version="1.1" xmlns="http://www.w3.org/2000/svg" xmlns:xlink="http://www.w3.org/1999/xlink" x="0px" y="0px"
	 viewBox="0 0 1000 533.61" style="enable-background:new 0 0 1000 533.61;" xml:space="preserve">
<style type="text/css">
	.st0{display:none;}
	.st1{display:inline;fill:#11191F;}
	.st2{fill:#EDF0F3;}
</style>
<g id="BG" class="st0">
	<rect x="0" y="1.1" class="st1" width="1000" height="1000"/>
</g>
<g id="Object">
	<g>
		<path class="st2" d="M649.28,232.81c-19.38-5.3-37.76-14.08-57.11-19.67c-29.52-8.53-58.67-21.13-88.24-28.51
			c-16.66-23.07-33.57-46.23-48.82-70.26c-0.41,0.18-0.88,0.32-1.44,0.41c0.09,0.05,0.14,0.1,0.24,0.14l-0.48-0.09
			c0.09-0.01,0.15-0.04,0.24-0.05c-1.45-1.38-1.62-2.48-0.51-3.3c-2.36-3.3-4.71-6.61-7.09-9.89c-2.19-0.47-3.91,0.4-5.8,1.36
			c39.9,51.86,77.28,106.73,111.71,162.32c-54.87,11.62-109.97,22.85-165.35,32.09c-0.03,2.29-5.01,2.72-5.33,0.7
			c-5.48,0.56-10.89,1.08-16.32,2.05c2.31-18.63-0.22-37.59,1.77-56.31c-2.21-0.86-4.16-2.12-5.85-3.8
			c-0.76,14.1-6.48,47.28,0.68,60.73c-7.06,1.31-14.76,1.96-21.56,4.14c-10.28-4.08-21.91-5.67-32.6-8.44
			c0.87,2.1,1.84,4.16,2.9,6.17c5.35,1.4,10.76,2.53,16.2,3.53c1.6-1.11,3.42-2.06,5.79-2.59c0.01,1.2,0.02,2.4,0.02,3.6
			c3.59,1.04,7.14,1.08,10.65,0.13c56.11,4.49,118.63-17.42,172.57-29.13c0.53-1.77,3.09-1.51,4.25-0.91
			c52.1-11.25,108.87-18.73,158.93-37.02c-18.36,14.88-30.98,39.09-43.89,58.34c-16.12,24.03-32.73,47.48-49.39,71.06
			c0.29,0.47,0.57,0.93,0.85,1.39c0.85,0.21,1.69,0.41,2.54,0.61c13.77-20.5,29.93-39.34,43.91-59.72c-0.3-0.48-0.47-1-0.49-1.54
			c0.43,0.12,0.87,0.24,1.3,0.36c7.81-11.37,51.27-56.58,49.34-72.26C683.43,238.19,656.68,234.83,649.28,232.81z M456.76,286.75
			l0.55-0.39l0.26,0.48L456.76,286.75z M551.9,206.82c2.12,0.09,3.22,1.01,3.28,2.76c-1.43-0.16-2.86-0.33-4.29-0.49
			C550.73,208.24,549.96,207.16,551.9,206.82z M518.55,194.53c-2.84,0.67-5.34,0.65-6.91-1.33c0.93-0.34,1.88-0.65,2.77-1.01
			C516.92,191.16,519.93,191.26,518.55,194.53z M533.59,204.99c-0.98,1.06-13.79,9.16-12.6,2.57
			C521.38,205.42,532.51,204.97,533.59,204.99c0.03-0.03,0.06-0.07,0.09-0.1l0.14,0.1C533.74,204.98,533.67,204.99,533.59,204.99z
			 M544.34,245.64c3.77-2.06,7.17-2.02,10.19,0.12C556.64,248.67,537.78,249.22,544.34,245.64z M551.55,238.68
			c1.62-2.72,3.53-3.02,5.72-0.9C555.48,240.23,553.57,240.53,551.55,238.68z M590.98,225.56c0.44-0.39,0.98-0.6,1.62-0.61
			C598.15,226.57,589.03,229.28,590.98,225.56z M601.9,242.24c-0.73-0.01-0.85-0.23-0.37-0.65
			C602.26,241.6,602.38,241.82,601.9,242.24z M606.85,222.22c-1.04,0.35-8.74,0.61-3.18-1.3
			C604.26,220.72,609.28,221.39,606.85,222.22z"/>
		<path class="st2" d="M380.06,12.94c-2.42-1.53-4.59-1.32-6.51,0.63c0.13-3.15-15.45,17.61-16.64,19.28
			c-8.99,12.52-17.42,25.26-25.73,38.24c-11.13,17.38-22.78,35-34.92,51.7c1.47,0.51,2.77,1.21,3.93,2.09
			c0.22-0.32,0.44-0.64,0.66-0.96c19.48-27.68,37.59-56.39,57.42-83.9l0.01-0.09l0.04,0.01c1.16-1.61,2.32-3.23,3.42-4.87
			c-4.17-0.66,0.38-2.29,1.48-2.27c2.63-4.22,5.42-8.38,7.74-12.77c-15.53,69.09-19.78,148.09-21.18,218.61
			c1.95-0.08,3.87-0.34,5.76-0.78c3.95-41.36,6.32-82.76,12.45-123.93c0.78,39.76-3.51,82.7-6.84,122.36
			c2.25-0.75,4.44-1.57,6.62-2.42c0.11-1.32,0.22-2.65,0.32-3.97c4.61-57,10.98-113.95,14.32-171.11
			c-6.16,4.41-9.84-7.54-13.22-6.44c13.58-4.39,6.52-1.75,13.42,3.05c0.75-12.39,0.05-24.22-0.64-36.56
			c11.48,28.04,34.99,54.16,53.29,77.67c1.6-0.99,3.84-1.19,5.97-1.52c-12.57-17.13-24.86-34.54-37.16-51.86
			C399.26,36.33,380.41,15.41,380.06,12.94z M375.97,15.57c-0.36-0.6-0.35-0.94,0.03-1.02c0.17-0.02,0.52-0.04,0.74-0.06
			C377.12,15.39,376.87,15.75,375.97,15.57z"/>
		<path class="st2" d="M355.29,240.49c-1.87,0.02-3.72,0.25-5.56,0.68c-0.05,4.45,1.08,48.99,3.75,48.4
			C358,288.61,354.57,247.98,355.29,240.49z"/>
		<path class="st2" d="M585.44,369.62c-3.6,5.09-7.3,10.16-10.75,15.36c1.77,0.02,3.54,0.04,5.31,0.05
			c2.98-4.44,5.84-8.96,8.83-13.4c-0.85-0.21-1.69-0.41-2.54-0.62C586.01,370.54,585.72,370.08,585.44,369.62z"/>
		<path class="st2" d="M303.75,300.83c-0.45-0.2-0.94-0.33-1.46-0.42C302.78,300.55,303.28,300.7,303.75,300.83z"/>
		<path class="st2" d="M121.08,362.35c3.36,4.17,6.64,8.31,10.23,12.29c4.17,1.63,10.08,11,13.01,14.34c0.52-0.31,0.85-0.41,1-0.27
			c0.15,0.14,0.07,0.56-0.22,1.15c5.31,5.84,10,11.98,14.88,18.17c2.78,0.47,5.48,1.27,8.2,1.98
			c-13.92-17.09-30.08-32.19-43.7-49.47C123.45,361.33,122.31,361.94,121.08,362.35z"/>
		<path class="st2" d="M206.65,249.56c2.38,3.22,87.58-116.01,92.3-122.89c-2.14-0.16-4.11,1.43-6,0.65
			c-14.77,20.29-29.01,41-43.94,61.19c-74.87,20.68-156.51,25.02-233.49,37.32c0,0,0.65,0.14,1.82,0.4
			c-0.52-0.03-8.35-0.04-5.68,1.5c1.59,20.1,27.08,43.65,39.38,57.65c22.28,25.36,45.91,49.47,68.18,74.77
			c1.33-0.54,2.57-0.96,3.98-1.15C86.96,315.8,50.41,272.98,15,229.12c38.87,13.6,83.33,17.16,123.37,26.42
			c49.51,11.46,100.66,23.98,148.82,40.17c0.01-0.69,0.09-1.39,0.24-2.09l-0.76,0.16l0.13-0.52l0.62,0.35
			c-0.16,0.7-0.24,1.4-0.24,2.09c2.28,0.77,4.59,1.74,6.93,2.33c0.5-1.38,1.24-2.57,2.24-3.56c0.13-0.29,0.09-0.55-0.14-0.81
			c0.11-0.06,0.21-0.11,0.32-0.17c-36.25-10.28-73.11-18.6-109.16-29.55c4.19,0.99,7.02,1.67,7.02,1.67L206.65,249.56z
			 M204.81,215.83c2.26,0.86,2.27,1.73,0.01,2.62C202.52,217.59,202.52,216.72,204.81,215.83z M46.97,229.48
			c-2.82,4.65-10.79-3.7-7.15-4.5C41.38,224.98,48.8,226.46,46.97,229.48z M64.92,236.9c-3.42-0.26-4.13-1.35-2.15-3.26
			C65.28,233.99,65.99,235.08,64.92,236.9z M147.83,237.27c-2.92-0.7-4.01-2.17-4.19-4.02
			C146.52,233.97,147.61,235.44,147.83,237.27z M141.41,242.81c2.61-2.33,2.91-2.34,6.44-0.06c0,0,0.01,0.01,0.02,0.01
			C145.72,242.78,143.56,242.79,141.41,242.81z"/>
		<path class="st2" d="M473.22,392.88c-1.54-1.15-3.3,0.09-3.08,1.79c1.31-0.18,2.61-0.32,3.93-0.43
			C473.99,393.69,473.7,393.24,473.22,392.88z"/>
		<path class="st2" d="M380.92,291.72c1.3,5.91,2.57-1.26,2.65-2.44c-1.1-0.51-2.22-1.05-3.27-1.67
			C380.48,289.3,380.7,290.69,380.92,291.72z"/>
		<path class="st2" d="M384.71,185.03c-0.17,0.26-0.41,0.53-0.67,0.79c-0.23,0.87-0.22,1.81-0.75,2.6
			c-0.59,0.89-0.86,2.03-1.62,2.88c-0.09,30.55-3.25,61.24-1.71,91.78c1.32,0.24,2.6,0.55,3.81,0.94c0.21-7.04-0.02-14.1,0.06-21.14
			c-0.49-0.71-0.48-1.36,0.02-1.93c0.27-16.46-1.32-33.26-0.07-49.66c-0.19,0.05-0.38,0.1-0.57,0.15c0.17-0.22,0.37-0.4,0.59-0.54
			C384.5,202.29,385.03,193.66,384.71,185.03z"/>
		<path class="st2" d="M386.32,52.95c-7.41,41.15-7,88.47-5.07,130c0.8-0.18,1.67-0.19,2.48,0.13c0.44,0.17,0.72,0.36,0.92,0.55
			c0.01-10.65,1.45-21.2,1.81-31.84c-1.96-0.49-2.14-2.17-1.8-3.58c0.63,0.14,1.26,0.29,1.9,0.44c1.05-32.03,3.2-64.09,3.61-96.1
			C388.95,53.16,387.66,53.29,386.32,52.95z M384.07,101.61c-0.09-0.83,0.66-1.3,1.8-1.36C388.61,100.1,386.45,102.43,384.07,101.61
			z"/>
		<path class="st2" d="M387.47,47.86c1.04,0.4,1.95,1.04,2.73,1.93c0.23-2.11-0.08-4.14-0.91-6.09
			C388.39,44.97,387.78,46.36,387.47,47.86z"/>
		<path class="st2" d="M396.36,148.74c0.65-0.48,0.61-1.29-0.11-2.42C396.29,147.11,396.32,147.93,396.36,148.74z"/>
		<path class="st2" d="M400.64,212.32c-1.9-1.21-2.42-3.18-1.57-5.92c0.64-0.37,1.26-0.66,1.87-0.88
			c-0.1-16.28,0.23-32.53,0.03-48.8c-1.92,1.12-3,1.41-4.24,0.95c0.47,12.13-1.31,127.28,3.37,127.57
			C403.78,285.49,400.55,214.26,400.64,212.32z"/>
		<path class="st2" d="M400.14,65.51c-7.33-0.37-4.11,73.81-4.01,77.18c1.53-0.26,3.08-0.38,4.64-0.34
			C400.77,139.17,402.46,65.62,400.14,65.51z M399.15,124.97c0.12-0.12,0.5-0.14,0.77-0.2
			C403.05,125.47,397.56,126.58,399.15,124.97z"/>
		<path class="st2" d="M412.35,204.97c0.31-1.51,1.09-2.63,2.34-3.37c-0.05-7.16-0.81-14.22-0.79-21.39l-0.09-0.06
			c-1.2,0.18-2.39,0.38-3.58,0.58c0.26,8.94,1.48,17.76,1.51,26.73c0.05,0.02,0.1,0.04,0.14,0.06c-0.14,4.26-1.26,73.92,3.57,74.07
			c3.05,0.1-0.68-73.16-0.73-76.99C413.97,204.77,413.17,204.88,412.35,204.97z"/>
		<path class="st2" d="M409.53,155.95c0.25,4.11,0.48,8.21,0.69,12.32c0.17,2.66-0.08,5.31-0.1,7.98c1.3-0.07,2.59-0.18,3.83-0.41
			c0.32-5.99,0.25-11.86,0.06-17.86C412.58,157.16,411.09,156.48,409.53,155.95z"/>
		<path class="st2" d="M411.55,74.86c-7.4-0.14-2.4,74.93-2.28,76.95c1.39,1.09,2.93,1.88,4.62,2.37
			C413.85,152.99,413.9,74.9,411.55,74.86z"/>
		<path class="st2" d="M430.92,262.12c-1.41-0.38-2.71-0.86-3.83-1.45c-0.07-0.65,0.51,13.65,2.98,13.69c2.2,0.03,1.45-10,1.29-12.2
			C431.19,262.16,431.03,262.15,430.92,262.12z"/>
		<path class="st2" d="M422.55,89.09c-7.34-0.02-1.73,60.26-1.47,63.62c1.28-1.14,2.82-1.86,4.61-2.15
			C425.55,147.48,424.77,89.09,422.55,89.09z"/>
		<path class="st2" d="M424.43,159.54c-0.91,0.12-1.83,0.22-2.75,0.33c0.7,7.42,0.86,14.73,1.29,22.13
			c0.79,0.15,1.47,0.43,1.86,1.07c-0.59,0.16-1.18,0.27-1.78,0.33c1.35,23.9,3.38,47.64,3.76,71.63c1.49-0.1,2.89,0.3,4.2,1.19
			c-0.99-32.48-2.89-65.36-4.94-97.82C425.52,158.77,424.97,159.15,424.43,159.54z"/>
		<path class="st2" d="M446.53,271.6c0.18-7.33-0.61-14.68-0.47-22.03c-2.72-2.09-2.98-5.04-0.77-8.86
			c-5.08-41.38-2.98-83.62-7.51-125.03c-1.54-0.28-3.06-0.64-4.73-1.02c-0.6,12.77,0.4,24.93,1.67,37.68c0.5,0.11,1,0.21,1.49,0.32
			c-0.46,0.34-0.91,0.67-1.37,1.01c0.88,9.81,7.6,125.15,10.15,125.22c1.52-1.61,2.02-3.59,1.5-5.93
			C446.09,272.58,446.1,272.13,446.53,271.6z"/>
		<path class="st2" d="M433.09,113.64c1.88-0.69,3.4-1.32,2.96-2.92c-0.69-1.36-0.42-2.44,0.81-3.23
			C435.87,99.6,433.2,110.94,433.09,113.64z"/>
		<path class="st2" d="M451.49,120.91c-8.8,0.07,2.31,105.77,3.08,115.73c1.06-0.19,2.12-0.29,3.2-0.3
			C456.31,222.27,454.35,120.88,451.49,120.91z"/>
		<path class="st2" d="M458.02,245.08c0.54,0.69,0.66,1.37-0.04,2.05c-0.82,0.09-1.64,0.17-2.46,0.26c0.21,1.45,0.32,2.91,0.33,4.37
			c0.17-0.15,0.34-0.3,0.51-0.45c0.46,0.64,0.15,0.92-0.54,1.04c-0.18,6.23-0.26,12.31,0.46,18.52c3.46,0.23,3.57,1.14,0.32,2.73
			c0.12,1.02,0.7,6.18,2.34,6.18c3.44,0.01-0.6-38.92-0.81-40.46C454.86,241.36,454.72,241.91,458.02,245.08z"/>
		<path class="st2" d="M464.12,140.42c-3.14,0.13-3.63,15.87-3.56,18.81c0.21,7.81,10.53,117.82,12.89,117.8
			C474.24,277.03,466.99,140.3,464.12,140.42z"/>
		<path class="st2" d="M485.44,255.92c-0.75-2.08-0.08-3.33,2.03-3.75c-0.37-10.46-8.99-93.82-9.49-93.8
			c-3.81,0.12-3.96,15.47-3.51,18.55c0.92,6.27,9.49,91.15,12.39,91.07c2.74-0.07,0.95-10.73,0.84-12.35
			C486.98,255.8,486.25,255.91,485.44,255.92z"/>
		<path class="st2" d="M495.4,254.24c-0.01,0.43-0.06,0.86-0.12,1.31c-0.34,2.45-0.87,14.33,2.8,14.3
			c2.6-0.02,1.26-14.85,1.04-16.53C497.86,253.61,496.62,253.91,495.4,254.24z"/>
		<path class="st2" d="M491.83,180.81c-9.31,0.13,1.38,59.59,2.65,66.66c1.15,0.14,2.31,0.28,3.46,0.42
			c-0.15-0.65-0.32-1.3-0.44-1.95C496.11,238.11,493.99,180.78,491.83,180.81z"/>
		<path class="st2" d="M504.46,200.32c-3.34,0.2-4.25,8.89-3.64,11.45c1.06,4.5,9.22,54.55,11.88,54.4
			C514.42,266.08,505.81,200.24,504.46,200.32z"/>
		<path class="st2" d="M516.68,218.97c-2.83,0.41-4.11,6.7-3.31,9.04c2.87,8.66,4.96,17.43,7.08,26.05
			c0.56-0.05,1.11-0.11,1.67-0.15c0.33-0.67,0.62-1.36,1.06-1.98C523.42,248.85,518.19,218.75,516.68,218.97z"/>
		<path class="st2" d="M522.28,254.7c-0.04-0.26-0.1-0.53-0.17-0.79c-0.56,0.05-1.11,0.1-1.67,0.15c0.55,2.13,1.01,14.98,4.48,14.79
			c3.93-0.21-0.71-13.22-1.1-14.32C523.35,254.63,522.85,254.69,522.28,254.7z"/>
		<path class="st2" d="M530.8,238.79c-1.25-1.2-8.27-3.91-5.13,2.12c1.43,2.8,6.93,11.32,6.42,14.16c0.08-0.04,0.16-0.09,0.22-0.13
			c1.64,0.42,0.25,1.13-0.26,0.91c4.24,14.99,3.97,6.28,2.56-3.66C534.25,249.65,532.87,240.77,530.8,238.79z"/>
		<path class="st2" d="M338.3,313.83c-0.71-0.08-8.62,97.74-8.48,104.97c1.5-0.14,3.01-0.31,4.51-0.51
			c0.27-1.01,0.51-2.03,0.69-3.06c4.55-24.74,2.49-51.27,3.58-76.47h-0.01c-0.69-0.7-1.37-1.4-2.07-2.09
			c0.51-0.26,1.56-0.74,2.06-1.02C338.52,332.69,343.05,314.33,338.3,313.83z"/>
		<path class="st2" d="M320.56,355.25c0.35,7.78-1.04,15.86-1.27,23.58c1.29-0.56,2.03-0.41,0.82,0.85
			c-0.27-0.19-0.55-0.38-0.82-0.57c-0.36,11.8-5.39,29.24-3.24,41c0.82-0.07,1.66-0.14,2.5-0.21c1.09-1.23,1.83-2.63,2.24-4.2
			c6.02-19.45,3.45-43.06,2.73-63.24C322.82,353.83,321.83,354.76,320.56,355.25z"/>
		<path class="st2" d="M321,324.61c-3.49-0.04-0.98,24.13-0.84,25.43c1.03-0.17,2.1-0.29,3.24-0.34c-0.07-1.04-0.19-2.05-0.18-3.01
			C323.27,344.19,325.25,324.65,321,324.61z"/>
		<path class="st2" d="M304.61,405.29c-0.58-0.87-1.04-1.75-1.39-2.63c-0.42,6.05-0.66,12.57-0.38,18.58
			c1.13-0.11,2.27-0.22,3.41-0.31c0.54-0.76,0.88-1.61,1.03-2.54c1.35-5.45,1.12-9.25,1.1-14.89
			C307.42,404.22,306.17,404.81,304.61,405.29z M306.15,410.73c0.32-0.2,0.63-0.4,0.95-0.6c0.2,0.32,0.39,0.65,0.59,0.97
			C307.18,410.97,306.66,410.85,306.15,410.73z"/>
		<path class="st2" d="M305.94,343.16c-3.14-0.26-2.38,45.43-2.48,51c1.58-0.03,3.17-0.08,4.59,0.24
			c-0.63-10.2-0.21-20.26-0.79-30.4c-0.21,0.07-0.42,0.13-0.63,0.21c0.07-1.76,0.13-3.51,0.2-5.27c0.06-0.01,0.11-0.01,0.16-0.02
			C306.78,356.41,310.6,343.55,305.94,343.16z M306.88,390c-0.79,0.11-1.59,0.21-2.39,0.32C305.14,389.78,305.96,389.71,306.88,390z
			"/>
		<path class="st2" d="M288.81,356.21c-3.46-0.42-2.78,45.05-2.78,49.51c0.65-0.43,1.43-0.8,2.41-1.08
			c0.37-1.03,0.71-2.07,1.61-2.81c0.13-0.1,0.27-0.2,0.42-0.29c-0.15,0.09-0.29,0.19-0.42,0.29c-0.9,0.73-1.24,1.78-1.61,2.81
			c0.43,1.46,1.32,2.57,2.65,3.31C291,403.28,290.35,356.39,288.81,356.21z"/>
		<path class="st2" d="M285.88,410.48c-0.18,3.7-0.51,8.69-0.04,12.32c1.55-0.12,3.11-0.24,4.66-0.37c0.15-0.82,0.32-1.64,0.51-2.45
			c0.97-2.95,0.72-5.24,0.24-8.33C289.37,411.1,288.05,410.69,285.88,410.48z"/>
		<path class="st2" d="M274.07,389.81c0.59-0.07,1.16-0.18,1.72-0.3c-0.14-2.15,1.6-16.13-2.07-16.32
			c-1.19-0.06-2.89,46.24-2.55,50.17c1.61-0.03,3.23-0.08,4.84-0.14c0.15-0.47,0.32-0.94,0.49-1.4c3.88-7.59-0.06-23.78-0.71-32.3
			C275.23,389.63,274.66,389.74,274.07,389.81z"/>
		<path class="st2" d="M257.16,383.02c-3.97,6.08-3.71,33.4-3.57,40.56c1.5,0.02,3.24,0.03,5.22,0.02c0.13-0.36,0.34-0.69,0.6-0.99
			c3.51-4.76-0.46-17.84-0.31-23.66C259.17,396.79,262.15,375.39,257.16,383.02z"/>
		<path class="st2" d="M240.51,398.3c-1.73,2.29-0.8,21.76-0.05,24.5c1.86,0.24,3.73,0.42,5.6,0.55c-0.09-0.38-0.22-0.76-0.38-1.11
			C244.95,418.17,243.15,394.81,240.51,398.3z"/>
		<path class="st2" d="M224.23,407.14c-2.09,2.57,0.25,9.83-0.17,13.1c1.44,0.24,2.88,0.48,4.32,0.72c-0.1-0.21-0.19-0.42-0.26-0.64
			C227.52,419.03,227.86,402.66,224.23,407.14z"/>
		<path class="st2" d="M349.52,321.51c-2.69,0.03-1.25,13.82-1.42,15.46c1.2,0.18,2.41,0.36,3.61,0.54
			c-1.2-0.18-2.41-0.36-3.61-0.54c-2.73,24.71-3.79,55.12-3.35,80.03c1.07-0.15,2.16-0.31,3.24-0.46c0.76-1,1.29-2.11,1.62-3.33
			C352.1,405.48,355.74,321.44,349.52,321.51z"/>
		<path class="st2" d="M362.52,334.22c0.9,0.56,1.57,1.27,2.09,2.08C364.07,332.66,363.34,330.25,362.52,334.22z"/>
		<path class="st2" d="M364.74,366.36c-0.09-6.63,1.44-13.94,0.87-20.45c-0.06-0.72-0.33-4.43-0.75-7.82
			c-1,0.17-1.94,0.18-2.82,0.07c-0.08,25.23,1.48,50.93,0.58,76.17c1.85-0.29,3.71-0.58,5.59-0.88c-0.01-0.8-0.09-1.59-0.24-2.38
			C366.12,396.36,364.94,381.12,364.74,366.36z"/>
		<path class="st2" d="M364.61,336.3c0.09,0.57,0.17,1.18,0.24,1.79c0.19-0.03,0.37-0.06,0.57-0.1
			C365.23,337.38,364.95,336.82,364.61,336.3z"/>
		<path class="st2" d="M379.1,338.5c-3.69,0.2,0.84,23.85,1.01,24.91c1.08,0.16,2.16,0.32,3.24,0.48c-0.09-0.79-0.18-1.58-0.26-2.35
			C382.81,359.34,383.14,338.27,379.1,338.5z"/>
		<path class="st2" d="M385.19,388.38c-2.23-1.29-3.52-3.2-3.88-5.73c-0.35,9.46-0.01,19.04,0.14,28.54
			c1.81-0.32,3.65-0.65,5.48-0.98c-0.07-1.17-0.19-2.33-0.35-3.49C386.28,400.54,385.86,394.55,385.19,388.38z M383.4,401.01
			c-0.48-0.43-0.36-0.64,0.37-0.65C384.24,400.79,384.12,401.01,383.4,401.01z"/>
		<path class="st2" d="M383.34,363.89c-1.08-0.16-2.16-0.32-3.24-0.48c0.76,4.79,0.51,9.68,1.17,14.5c0.55-1.27,1.1-2.57,2.44-3.52
			C383.21,370.88,383.73,367.4,383.34,363.89z"/>
		<path class="st2" d="M397.73,387.34c-1.33,0.12-2.67,0.24-4,0.36c-0.25,6.95,1.08,14.08,1.26,21.05c1.79-0.33,3.57-0.65,5.38-0.99
			c-0.11-0.76-0.24-1.52-0.42-2.27C399.3,399.68,397.66,393.09,397.73,387.34z"/>
		<path class="st2" d="M393.6,346.43c-3.93-0.09-0.24,26.71-0.26,28.87c0.68,0.55,1.36,1.19,2.01,1.94c1.06,1.2,0.66,2-1.6,2.18
			c0.46,1.64,0.38,3,0.36,4.75c0.31,0.18,0.44,0.47,0.4,0.88c1.12,0.04,2.24,0.06,3.37,0.09
			C397.88,380.79,396.44,346.49,393.6,346.43z"/>
		<path class="st2" d="M410.31,355.95c-3.31,0.16-0.38,16.14-0.01,17.54c1.03-0.37,2.23-0.27,3.37,0.1
			C413.28,371.4,414.44,355.74,410.31,355.95z"/>
		<path class="st2" d="M414.19,377.68c-1.01,0.56-2.01,1.14-3.06,1.66c-1.21,8.35,0.59,17.72,0.47,26.2
			c1.64-0.33,3.28-0.66,4.93-0.99c-0.19-3.08-0.56-6.14-1.09-9.18C414.66,389.53,414.93,383.48,414.19,377.68z"/>
		<path class="st2" d="M427.73,367.71c-2.42,0.03-0.31,30.1-0.1,34.63c1.38-0.27,2.77-0.55,4.15-0.82
			c-0.07-0.44-0.13-0.89-0.19-1.33C430.91,396.21,431.76,367.65,427.73,367.71z"/>
		<path class="st2" d="M442.34,371.85c-4.83-0.46-0.06,23.94-1.03,27.84c1.29-0.24,2.57-0.48,3.86-0.72
			c-0.07-0.79-0.13-1.58-0.19-2.37C444.89,393.4,445.09,372.12,442.34,371.85z"/>
		<path class="st2" d="M454.1,397.33c1.02-0.19,2.04-0.37,3.06-0.56c0.07-0.36,0.02-0.72-0.14-1.07
			C452.92,377.7,456.15,388.13,454.1,397.33z"/>
		<path class="st2" d="M372.81,311.43c-2.13,3.23,21.69,18.44,25.62,20.51c1.81-0.52,2.82-0.13,3.01,1.16
			c-0.07,0.13-0.15,0.23-0.24,0.34c6.29,3.51,46.32,23,46.06,23.89c21.86,10.78,43.14,22.75,65.33,32.93
			c2.32-0.22,4.63-0.43,6.96-0.65c-3.86-2.05-7.83-3.86-11.9-5.44C491.12,376.51,373.57,310.26,372.81,311.43z"/>
		<path class="st2" d="M399.38,306.84c-4.01,6.91,129.06,72.37,142.85,80.2c2.38-0.33,4.76-0.66,7.15-0.97
			c-0.95-0.46-1.9-0.93-2.83-1.42C531.22,376.27,400.13,305.53,399.38,306.84z"/>
		<path class="st2" d="M454.07,321.38c0.24,0.14,0.48,0.27,0.77,0.43c0.39,0.03,0.65,0.01,0.78-0.04c-0.4-0.2-0.8-0.4-1.19-0.6
			C454.31,321.24,454.2,321.32,454.07,321.38z"/>
		<path class="st2" d="M540.79,356.37c-0.22,0.19-0.49,0.35-0.83,0.46C540.3,356.72,540.57,356.56,540.79,356.37
			c-15.19-5.16-115.44-56.39-116.3-54.86c0.79,2.3,2.26,4.14,4.4,5.51c2.58,2.16,12.31,7.46,25.55,14.15
			c0.14-0.08,0.28-0.15,0.43-0.16c0.79,0.41,1.03,0.66,0.76,0.76c41.2,20.75,114.51,54.12,116.4,50.34
			C573.27,369.62,542.79,357.05,540.79,356.37z"/>
		<path class="st2" d="M507.79,324.08c-0.32,1.37,0.38,2.62,1.4,4.09c0.31,0.46,0.4,0.85,0.33,1.19
			c7.28,2.98,73.51,33.56,75.58,28.55C585.49,356.96,517.15,328.42,507.79,324.08z"/>
		<path class="st2" d="M463.2,300.78c-1.48-0.76-9.59-5.77-10.47-4.34c0.51,2.17,1.71,3.95,3.6,5.33
			c12.16,11.47,30.29,18.32,45.41,24.4c-0.39-1.49,0.33-2.83,1.83-4.02c-11.21-5.02-24.91-10.54-34.93-17.91
			C466.5,306,460.92,303.5,463.2,300.78z"/>
		<path class="st2" d="M564.85,328.89c-0.09,0-0.18,0-0.26,0l0.06,0.03l-0.06-0.03c-0.93-0.59-1.78-0.9-2.84-1.34
			c-3.29-0.02-6.59-0.04-9.88-0.07c0.87-0.9,2.97-1.82-0.11-2.67c0.08-0.41,0.25-0.76,0.46-1.08c-7.42-2.7-70.43-32.39-72-29.48
			c0.22,1.79,1.31,2.94,3.25,3.45c17.17,9.96,37.86,13.8,54.53,24.41c2.44-0.03,4.68,0.24,5.35,2.65c-0.01,0.03-0.02,0.07-0.03,0.11
			c2.62,1.18,5.33,2.17,7.94,3.37c0.19-0.25,0.39-0.5,0.58-0.76c-0.19,0.25-0.39,0.5-0.58,0.76c1.66,0.76,40.22,19.76,41.11,17.94
			C595.26,340.32,567.7,330.17,564.85,328.89z"/>
		<path class="st2" d="M502.01,286.26c0.35,1.85,1.33,3.34,2.93,4.49c7.4,6.68,100.55,45.95,102.06,42.91
			C607.48,332.7,502.85,284.54,502.01,286.26z"/>
		<path class="st2" d="M568.71,300.58c-9.08-3.37-18.25-6.33-27.33-9.89c-3.05-1.2-24.22-7.37-15.32-2.74
			c8.2,4.4,86.03,34.87,86.11,34.68C615.74,314.65,570.44,301.22,568.71,300.58z M538.04,291.64c-0.79,0.3-1.13,0.13-1-0.53
			C538.01,290.89,538.36,291.08,538.04,291.64z"/>
		<path class="st2" d="M546.2,275.64c-0.04,1.55,0.52,2.9,1.68,4.05c5.21,6.15,13.83,8.47,21.12,11c3.49-0.39,6.85-3.7,8.8,0.06
			c-0.31,0.77-0.56,1.58-0.89,2.37c5.13,1.49,46.26,17.27,47.64,13.01C624.49,306.32,545.83,276.34,546.2,275.64z"/>
		<path class="st2" d="M589.94,275.49c1.71,3.82-7.34,3.14-2.85-0.75c0.01-0.14,0.01-0.28,0.02-0.43
			c-2.7-1.11-19.12-7.63-12.98-0.52c4.3,4.91,58.97,20.34,59.98,17.67C634.98,289.16,593.77,276.89,589.94,275.49z"/>
		<path class="st2" d="M641.26,274.67c-3.99-3.13-16.27-3.33-21.7-4.88c-2.49-0.71-24.37-9.88-20.28-3.04
			c4.29,7.06,17.41,6.23,24.28,7.72C626.69,275.14,648.56,280.39,641.26,274.67z"/>
		<path class="st2" d="M628.61,259.56c2.96,5.89,29.61,4.82,27.2,2.19C652.66,258.31,626.18,254.6,628.61,259.56z"/>
		<path class="st2" d="M222.48,383.56c0.67,0.23,1.35,0.45,2.02,0.68c0.64,0.76,1.28,1.52,1.92,2.28
			c7.94-7.32,15.81-14.48,23.92-21.56c-0.25,0.08-0.52,0.15-0.73,0.23c-0.68-1.02-1.02-1.51,0.72-1.6c0.2,0.27,0.55,0.55,0.66,0.8
			c12.51-10.92,24.82-22.05,37.44-32.94c-1.62,0.01-3.22-0.15-4.79-0.5C264.77,349.81,242.65,366.14,222.48,383.56z"/>
		<path class="st2" d="M186.43,414.5c1.85,0.39,3.71,0.72,5.58,1c1.22-0.83,2.42-1.69,3.6-2.58c7.1-5.38,13.41-10.89,20.13-16.81
			c-1.83-0.72-3.63-1.49-5.42-2.3C202.28,400.63,194.23,407.45,186.43,414.5z"/>
		<path class="st2" d="M289.53,325.84c1.04,0.57,2.31,1.6,3.19,2.55c4.23-2.7,8.3-5.79,12.05-9.12c-0.08-1.76,1.12-2.83,3.6-3.2
			c0.84-0.75,5.26-4.5,4.28-5.92C311.09,307.88,291.26,324.65,289.53,325.84z"/>
		<path class="st2" d="M223.38,389.29c0.59-0.53,1.18-1.07,1.76-1.61C224.21,388.03,223.6,388.55,223.38,389.29z"/>
		<path class="st2" d="M173.91,407.63c3.77,5.14,30.84-19.36,33.4-21.49c-0.59-0.87-1.33-1.7-2.27-2.5
			c2.14-0.32,4.27-0.64,6.41-0.96c6.87-5.97,90.04-75.98,88.27-78.42C299.86,304.44,172.09,405.18,173.91,407.63z"/>
		<path class="st2" d="M255.94,312.41c-0.11,0.22-0.27,0.38-0.51,0.46c-1.7,1.5-3.34,3.07-4.91,4.71
			c-11.31,10.03-90.97,72.31-89.74,74c5.11,6.98,119.33-92.49,117.79-94.62C277.01,294.77,257.68,310.97,255.94,312.41z"/>
		<path class="st2" d="M202.87,331.04c-1.04,0.77-56.56,41.88-55.21,43.75c5.35,7.41,59.46-42.71,63.12-46.76
			c-2,0.94-4.12,1.45-6.33,1.69C203.96,330.2,203.47,330.61,202.87,331.04z"/>
		<path class="st2" d="M215.26,320.89c1.1,0.18,2.2,0.36,3.3,0.54c0,0.3,0.01,0.6,0.01,0.91c2.09-1.47,34.2-24.94,32.29-27.75
			C248.49,291.05,216.63,320.04,215.26,320.89z"/>
		<path class="st2" d="M203.06,312.25c-7.7,5.76-68.52,50.26-67.73,51.54c5.53,8.97,58.04-40.35,61.78-43.35c0-0.08,0-0.16,0-0.24
			l0.06,0.03l-0.05-0.03c0.1,0,0.19,0,0.29,0c3.62-2.67,40.47-29.55,37.94-33.05C232.94,283.83,203.67,311.8,203.06,312.25z"/>
		<path class="st2" d="M180.38,303.81c-5.78,5.13-57.34,44.22-55.39,46.58c5.32,6.45,81.31-64.91,80.98-65.38
			C203.63,281.59,180.96,303.28,180.38,303.81z"/>
		<path class="st2" d="M112.56,334.83c2,2.48,8.57-2.35,10.62-3.16c5.35-2.13,60.94-53.64,60-54.9
			C182.04,275.24,111.35,333.34,112.56,334.83z"/>
		<path class="st2" d="M137.28,289.25c1.53,0.01,3.05,0.02,4.58,0.03c0.06,0.03,0.12,0.07,0.18,0.11
			c2.19-1.56,24.35-16.4,22.08-19.62C162.09,266.87,139.44,287.09,137.28,289.25z"/>
		<path class="st2" d="M132.45,293.63c-0.36,0.25-32.34,23.88-30.92,25.67c1.78,2.24,10.04-1.84,11.95-3.45
			c6.43-5.26,11.92-11.71,18.2-17.14c0.53-1.34,1.06-2.68,1.59-4.02C133.08,294.26,132.8,293.91,132.45,293.63z"/>
		<path class="st2" d="M92.49,307.23c1.63,2.05,7.98-0.51,9.82-1.75c3.71-2.52,40.96-37.81,39.6-39.54
			C140.71,264.43,91.79,306.36,92.49,307.23z"/>
		<path class="st2" d="M113.5,266.76c-4.17,2.2-33.1,26.81-33.09,26.82c3.55,5.05,11.21-2.81,13.62-4.64
			c6.49-5.7,14.43-11.55,19.98-18.07C118.82,265.22,123.59,261.45,113.5,266.76z"/>
		<path class="st2" d="M88.39,268.77c-4.11,3.2-13.62,8.46-16.05,12.93c-4.79,8.85,4.82,3.67,9.26-0.78
			c4.09-3.96,16.01-12.66,18.26-17.21C105.41,252.45,90.41,267.2,88.39,268.77z"/>
		<path class="st2" d="M67.09,269.34c1.68,0.45-0.94,2.99-1.71,1.39c-6.24,4.31-4.93,12.42,0.68,7.08
			c2.47-2.2,20.45-20.21,20.22-22.69C85.79,249.58,69.99,266.76,67.09,269.34z"/>
		<path class="st2" d="M56.83,255.37c0.17,0.57,0.03,1.01-0.5,1.29c-4.54,6.62-2.65,11,2.66,2.61
			C61.57,252.98,62.49,248.66,56.83,255.37z"/>
		<path class="st2" d="M47.8,242.46c0.08,1.3,0.73,2.81-1.43,3.38c0.07,0.34-0.1,0.56-0.48,0.66c-9.24,13.34,3.43-0.72,5.13-1.09
			C53.3,244.56,49.38,239.66,47.8,242.46z"/>
		<path class="st2" d="M35.46,240.97c-0.03-0.2-0.11-0.38-0.23-0.55c-0.38-0.62-2.32-3.04-2.73-2.41c-0.43,0.21-0.13,1.66-0.12,1.55
			c-0.05,0.05-0.09,0.09-0.15,0.12c0.18,0.2,0.46,0.59,0.12,0.66c-0.12,0.57-0.58-1.03-0.55,0.3c-0.06,0.12-0.14,0.22-0.25,0.3
			c-0.55,0.03-0.02,0.33-0.32,0.51c-1.21,0.05,2.99,4.79,3.91,3.07c-0.04-0.89-0.16-1.34-0.12-1.76
			C35.71,241.77,33.67,241.6,35.46,240.97z"/>
		<path class="st2" d="M470.13,395.98c-0.51-0.05-0.55-0.24-0.11-0.59c0.05,0.01,0.11,0.03,0.17,0.04c0.03-0.25-0.01-0.52-0.05-0.76
			c-4.34,0.59-8.67,1.3-12.98,2.1c-0.44,2.66,1,5.93,1.6,8.51c-1.34,0.2-2.67,0.4-4.01,0.61c-0.13-2.47-1.24-6.04-0.66-8.56
			c-2.98,0.53-5.96,1.07-8.93,1.64c0.23,2.86,0.55,5.32,1.1,8.3c-1.55,0.26-3.11,0.53-4.66,0.8c-0.2-2.82-0.99-5.61-0.3-8.38
			c-3.2,0.6-6.37,1.21-9.52,1.83c0.35,2.74,0.81,5.4,0.98,8.15c-1.67,0.32-3.33,0.65-5,0.98c0.08-2.79,0-5.52-0.13-8.31
			c-3.73,0.74-7.43,1.48-11.1,2.22c0.27,2.7,0.43,5.6,0.49,8.31c-1.83,0.4-3.66,0.82-5.49,1.24c-0.12-2.88,0.03-5.69,0.07-8.56
			c-3.73,0.8-7.48,1.54-11.24,2.22c0.57,3.48-0.01,5.8-0.52,9.17c-1.59,0.41-3.18,0.82-4.76,1.25c-0.47-3.05,0.02-6.32-0.09-9.43
			c-2.71,0.49-5.39,0.98-8.05,1.46c0,3.93-0.52,6.82-1.4,10.65c-0.37,0.11-0.75,0.23-1.12,0.34c0.3,0.23,0.54,0.51,0.64,0.89
			c-1.03,1.18-2.24,1.18-3.61,0c-0.16,0.05-0.32,0.1-0.47,0.14c-0.31-3.79,0.56-7.28,0.5-11.05c-4.49,0.8-8.9,1.55-13.25,2.26
			c0.11,3.31-0.82,8.86-2.39,11.67c-0.95,0.08-1.9,0.15-2.85,0.23c-0.65-3.91-0.49-7.17-0.34-11.01c-4.87,0.76-9.75,1.5-14.63,2.21
			c-0.82,1.12-3.19,3.58-3.24,0.46c-3.46,0.5-6.93,0.93-10.41,1.29c-0.3,1.15-1.97,6.23-3.77,6.05c-1.4-0.14-0.73-4.69-0.75-5.55
			c-3.75,0.39-7.51,0.76-11.27,1.11c-0.63,0.73-2.15,2.13-2.5,0.21c-3.27,0.26-6.53,0.53-9.8,0.81c-1.03,1.63-3.25,3.52-3.41,0.31
			c-4.43,0.42-8.54,0.89-12.35,1.19c-0.33,1.44-1.37,4.53-3.26,4.57c-1.32,0.03-1.3-3.44-1.4-4.2c-3.27,0.26-6.55,0.33-9.83,0.41
			c-1.43,4.18-4.43,4.75-4.84,0.14c-4.12,0.08-8.24,0.15-12.35,0.24c-0.34,0.88-4.28,6.27-4.98,3.09c-2.11,0.68-1.55,0.58-3.4-0.03
			c-0.9-1.24,2.86-1.92,3.21-1.98c-0.05-0.36-0.07-0.73-0.06-1.1c-2.5-0.03-5.02-0.07-7.52-0.23c1.43,7.32-3.96,5.43-5.6-0.55
			c-4.05-0.47-8.06-1.17-12.08-1.84c1.36,3.32,3.79,7.15,0.07,9.7c-1.15-0.07-2.29-0.18-3.43-0.33c-0.01-2.98-1.36-6.99-0.96-10.09
			c-10.64-1.79-21.39-3.06-32.06-4.73c-0.91,0.63-8.5,5.7-9.78,4.12c0.68-2.21,2.08-3.92,4.2-5.12c-6.15-1.23-12.19-2.94-18.26-4.5
			c3.12,3.83,6.42,7.55,9.42,11.47c-10.91-3.18-11.33-5.5-17.62-13.44c-1.76,0.11-3.52,0.23-5.28,0.34
			c-3.36,7.86,40.54,20.49,44.88,21.51c-0.65-1.11-1.52-2.17-2.7-3.17c2.16-0.32,4.33-0.65,6.5-0.97c1.59,0.85,3.18,1.7,4.78,2.54
			c0.62-0.09,1.23-0.2,1.84-0.32c0.03-0.03,0.06-0.06,0.09-0.09c-0.32-0.06-0.64-0.12-0.97-0.19c-0.71-1.51,0.44-0.38,0.27-1.28
			c0.18-0.42-0.03-0.7-0.43-0.91c-1.53-5.83,3.87-2.4,3.79-1.91c-0.64,0.76-0.76,1.37-0.69,2.29v0v0l0,0
			c1.43,0.48,2.85,0.97,4.28,1.45c0.85,1,1.7,2.01,2.54,3.01c-2.36,0.29-3.79,1.09-3.76,2.71c0.02,0.02,0.03,0.03,0.05,0.05
			c58.76,10.95,119.03,0.72,177.11-11.15c-1.99,1.65,8.12-4.59,10.29-2.12c22.21-4.62,44.26-10.54,66.66-14.22
			c-0.52-1.03,0.14-1.77,1.99-2.23C470.08,400.87,469.91,398.57,470.13,395.98z M232.73,431.71c-0.43,0.26-0.8,0.66-1.31,0.76
			C229.23,432.88,230.48,430.06,232.73,431.71L232.73,431.71z M265.34,436.77c-0.02,0.01-0.43-0.19-0.66-0.29
			c0.42-0.81,0.95-0.97,1.57-0.48C265.96,436.27,265.68,436.53,265.34,436.77z M258.53,431.98c7.53-0.41,15.1-0.36,22.64-0.45
			C273.65,431.81,266.09,431.99,258.53,431.98z M299.01,431.82l-0.22-0.49l0.7,0.13L299.01,431.82z M305.62,431.37
			c-0.32,0.28-1.14,0.34-1.72,0.49c-1.57-1.15-1.53-2.27,0.1-3.36C305.9,428.42,306.44,429.37,305.62,431.37z M307.22,433.03
			c-0.24-0.04-0.48-0.09-0.72-0.14C307.34,432.39,307.59,432.44,307.22,433.03z M339.87,428.57c3.39-3.01,9.08-3.98,12.35,0.33
			C348.04,429.81,343.93,429.57,339.87,428.57z M373.02,414.4c0,0-0.06,0.01-0.09,0.02c1.56-1.99,2.39-2.4,4.96-1.16
			C376.27,413.64,374.65,414.02,373.02,414.4z"/>
		<path class="st2" d="M815.5,432.66c-0.04,0-0.07,0-0.11,0c0.05,0.02,0.1,0.05,0.15,0.07C815.53,432.71,815.51,432.69,815.5,432.66
			z"/>
		<path class="st2" d="M815.54,432.73c0.14,0.3,0.36,0.57,0.68,0.81c-9.03,12-10.42,0.72-9.21,0.12c0.83-0.41,1.7-0.77,2.56-1.16
			c1.94,0.05,3.88,0.11,5.82,0.16c-27.03-11.99-70.66-26.19-75.91-27.89c-0.5,2.27-2.06,2.92-4.68,1.94
			c-4.04-0.75-4.56-2.78-4.25-4.87c-45.89-14.8-102.28-16.43-150.54-16.81c-0.93,1.39-1.8,2.8-2.67,4.23
			c-1.87,0.01-3.73,0.03-5.6,0.09c1.03-1.42,2.02-2.88,2.96-4.36c-8.42,0.04-16.94,0.01-25.31,1.09c2.5,1.22,4.9,2.57,7.27,4.02
			c-2.38,0.17-4.76,0.37-7.13,0.58c-2.49-1.13-4.91-2.28-7.29-3.63c-7.53,1.1-15.1,1.86-22.68,2.57c2.32,1.34,4.65,2.6,7.03,3.82
			c-2.21,0.32-4.41,0.66-6.6,1.01c-2.39-1.46-4.85-3-7.39-4.17c-12.86,1.21-25.67,2.82-38.53,3.98c0.72,2.81-0.34,5.78,0.15,8.84
			c-0.27,0.04-0.54,0.07-0.81,0.11c0.83,0.33,1.32,0.86,1.46,1.57c62.29-8.16,118.85-13.16,181.43-6.09
			c34.06,3.85,66.16,11.16,98.57,22.41c8.76,3.04,78.03,32.35,81.71,26.14C838.38,444.18,829.06,438.74,815.54,432.73z
			 M484.28,401.48c-1.25,0.38-2.52,0.64-3.82,0.78c-0.31-0.53-0.06-4.38,0.44-4.9c0-0.09-0.01-0.19-0.01-0.28
			c0.11,0.02,0.2,0.04,0.3,0.07c1.75-0.84,3.74,0.8,3.6,2.6C484.69,400.44,484.62,400.87,484.28,401.48z M488.6,395.4
			c-0.29,0.27-2.49-0.09,0.82-1.13l0.09,0.06C489.22,394.69,488.96,395.07,488.6,395.4z M673.28,396.58l0.11,0.17
			C676.19,390,674.68,403.76,673.28,396.58z"/>
		<path class="st2" d="M571.74,389.34c1.87-0.05,3.73-0.08,5.6-0.09c0.87-1.43,1.74-2.84,2.67-4.23c-1.77-0.01-3.54-0.02-5.31-0.05
			C573.76,386.47,572.77,387.92,571.74,389.34z"/>
		<path class="st2" d="M162.64,408.56c-0.98-0.23-1.86-0.4-2.67-0.54c6.29,7.95,6.72,10.26,17.62,13.44
			c-3-3.91-6.31-7.64-9.42-11.47C166.32,409.52,164.48,409.05,162.64,408.56z"/>
		<path class="st2" d="M258.53,431.98c7.56,0.01,15.12-0.17,22.64-0.45c-6.12,0.06-12.25,0.14-18.37,0.25
			C261.31,431.84,259.89,431.91,258.53,431.98z"/>
		<path class="st2" d="M474.07,394.24c-1.31,0.11-2.62,0.25-3.93,0.43c0.03,0.25,0.07,0.51,0.05,0.76c0.58,0.03,0.64,0.24,0.2,0.61
			c-0.08-0.02-0.17-0.04-0.25-0.06c-0.22,2.56,0.04,4.92,1.08,7.37c1.01-0.18,2-0.13,3.02-0.27
			C473.73,400.02,474.8,397.06,474.07,394.24z"/>
		<path class="st2" d="M330.56,424.34c1.79,0.18,3.47-4.9,3.77-6.05c-1.5,0.19-3.01,0.36-4.51,0.51
			C329.84,419.65,329.16,424.21,330.56,424.34z"/>
		<path class="st2" d="M316.78,421.16c0.73-0.24,1.32-0.66,1.77-1.25c-0.84,0.07-1.67,0.15-2.5,0.21
			C316.16,420.74,316.42,421.11,316.78,421.16z"/>
		<path class="st2" d="M306.25,420.93c-1.14,0.09-2.27,0.19-3.41,0.31C303,424.45,305.23,422.56,306.25,420.93z"/>
		<path class="st2" d="M287.24,427c1.89-0.04,2.92-3.13,3.26-4.57c-1.55,0.13-3.11,0.26-4.66,0.37
			C285.94,423.56,285.92,427.03,287.24,427z"/>
		<path class="st2" d="M276.01,423.21c-1.61,0.07-3.23,0.11-4.84,0.14C271.58,427.96,274.58,427.39,276.01,423.21z"/>
		<path class="st2" d="M253.59,423.58c-0.01,0.37,0.01,0.74,0.06,1.1c2.92-0.48,3.04,1.1,0.19,2.01c0.7,3.18,4.64-2.21,4.98-3.09
			C256.83,423.61,255.09,423.6,253.59,423.58z"/>
		<path class="st2" d="M240.46,422.8c1.64,5.96,7.03,7.89,5.6,0.55C244.19,423.22,242.32,423.04,240.46,422.8z"/>
		<path class="st2" d="M224.06,420.23c-0.39,3.09,0.95,7.12,0.96,10.09c1.14,0.15,2.28,0.26,3.43,0.33c3.7-2.54,1.29-6.4-0.07-9.7
			C226.94,420.71,225.5,420.47,224.06,420.23z"/>
		<path class="st2" d="M208.94,425.48c0.43,0.2,0.63,0.49,0.43,0.91c0.17,0.9-0.98-0.23-0.27,1.28c0.32,0.06,0.65,0.12,0.97,0.19
			c0.66-0.67,1.31-1.33,1.97-2l-0.02-0.12c-0.09-0.85,0.04-1.46,0.71-2.18C212.82,423.04,207.44,419.7,208.94,425.48z"/>
		<path class="st2" d="M344.77,417.45c0.32,2.73,2.75-0.27,3.22-0.91c-1.08,0.16-2.17,0.31-3.24,0.46
			C344.74,417.15,344.74,417.31,344.77,417.45z"/>
		<path class="st2" d="M362.58,414.81c-0.43,3.62-0.23,6.89,0.38,10.53c0.95-0.08,1.9-0.15,2.85-0.23c1.56-2.81,2.5-8.35,2.39-11.67
			c-1.88,0.31-3.74,0.6-5.59,0.88C362.61,414.49,362.6,414.65,362.58,414.81z"/>
		<path class="st2" d="M381.46,411.77c0.16,3.58-0.79,6.83-0.5,10.47c0.16-0.05,0.32-0.1,0.47-0.14c-1.39-1.66,2.6-1.18,2.98-0.9
			c0.37-0.11,0.75-0.23,1.12-0.34c0.87-3.81,1.4-6.76,1.4-10.65c-1.83,0.33-3.67,0.66-5.48,0.98
			C381.46,411.38,381.45,411.6,381.46,411.77z"/>
		<path class="st2" d="M394.99,408.75c0,0.04,0.01,0.1,0.01,0.14c0.02,3.03-0.38,6.31,0.08,9.29c1.58-0.43,3.17-0.84,4.76-1.25
			c0.51-3.4,1.1-5.69,0.52-9.17C398.56,408.1,396.78,408.42,394.99,408.75z"/>
		<path class="st2" d="M411.61,405.54c-0.01,0.36-0.01,0.74-0.02,1.09c-0.16,2.5-0.16,4.97-0.06,7.47c1.83-0.42,3.66-0.84,5.49-1.24
			c-0.07-2.72-0.22-5.6-0.49-8.31C414.89,404.89,413.24,405.21,411.61,405.54z"/>
		<path class="st2" d="M427.64,402.34c0.05,1.03,0.12,2.05,0.19,3.03c0.02,1.76,0,3.52-0.06,5.28c1.67-0.33,3.33-0.66,5-0.98
			c-0.17-2.76-0.62-5.41-0.98-8.15C430.4,401.79,429.01,402.06,427.64,402.34z"/>
		<path class="st2" d="M441.31,399.69c-0.08,0.32-0.19,0.65-0.26,0.99c-0.58,2.3,0.4,5.06,0.57,7.39c1.55-0.27,3.11-0.54,4.66-0.8
			c-0.53-2.89-0.87-5.47-1.1-8.3C443.88,399.21,442.6,399.45,441.31,399.69z"/>
		<path class="st2" d="M457.17,396.78c-1.02,0.19-2.04,0.37-3.06,0.56c-0.02,0.09-0.04,0.18-0.06,0.26
			c-0.57,2.39,0.66,5.9,0.71,8.29c1.34-0.21,2.68-0.41,4.01-0.61C458.12,402.77,456.73,399.43,457.17,396.78z"/>
		<path class="st2" d="M481.2,397.14c2.06,0.41,2.13,1.48,1.93,2.64c-2.04-0.38-2.18-1.38-2.23-2.43c-0.52,0.54-0.75,4.37-0.44,4.9
			c1.29-0.14,2.57-0.4,3.82-0.78c0.72-1.28,0.55-2.22,0-3.53C483.7,397.06,482.14,396.68,481.2,397.14z"/>
		<path class="st2" d="M512.6,390.26c0.06,0.03,0.13,0.06,0.19,0.09c2.46,1.25,4.86,2.61,7.2,4.08c2.19-0.35,4.39-0.68,6.6-1.01
			c-2.38-1.21-4.72-2.47-7.03-3.82C517.24,389.83,514.92,390.05,512.6,390.26z"/>
		<path class="st2" d="M542.24,387.04c2.38,1.35,4.8,2.5,7.29,3.63c2.37-0.22,4.75-0.41,7.13-0.58c-2.37-1.45-4.77-2.8-7.27-4.02
			C547,386.38,544.62,386.71,542.24,387.04z"/>
		<path class="st2" d="M182.22,419.61c1.28,1.58,8.87-3.49,9.78-4.12c-1.87-0.28-3.73-0.61-5.58-1
			C184.31,415.7,182.9,417.4,182.22,419.61z"/>
		<path class="st2" d="M606.73,349.99c-0.28-1.17,125.57-2.47,129.45-2.14c1.09-2.08,2.05-4.26,4.35-5.67
			c-12.26-1.28-24.54-2.63-36.86-3.24C699.28,338.69,604.2,339.62,606.73,349.99z"/>
		<path class="st2" d="M748.55,343.06c0.54,1.43,0.52,2.92,0.49,4.41c-0.57,0.43-1.13,0.88-1.68,1.32c1.58,0.13,3.16,0.3,4.74,0.49
			c-0.26-0.44-0.52-1.03-0.86-1.81c2.76,0.11,4.93,0.77,6.13,2.36c19.06,2.08,204.31,30.09,203.42,13.32
			C961.25,372.26,769.3,345.49,748.55,343.06z"/>
		<path class="st2" d="M342.35,461.9c0.51-0.67,1.1-1.25,1.71-1.79c-12.13-3.03-27.11-1.42-39.54-1.89
			c-0.11,2.49-1.36,3.62-3.75,3.37c-2.48-1.32,0.37-3.21,1.51-3.41c-9.37,0.07-18.72,0.77-28.1,0.8c3.39,4.38-11.03,0.67-10.96,0.73
			l0,0c-1.22-1.39,0.29-0.74,0.82-0.51c1.55-0.11,3.1-0.2,4.64-0.32c-30.77-2.35-131.73,2.43-134.62-39.45
			c-1.71,0.36-3.38-0.05-5.01-1.25c-11.59,49.84,128.6,45.33,156.44,45.07c1.98-1.96,4.74-3.38,5.74,0.02
			c4.48,0.11,55.94,3.72,55.18-1.9l0-0.02C345.05,461.44,343.69,461.62,342.35,461.9z M274.71,461.66
			c-0.57-0.38-0.51-0.68,0.19-0.88c0.14,0.16,0.27,0.32,0.45,0.52C275.14,461.41,274.93,461.53,274.71,461.66z"/>
		<polygon class="st2" points="263.22,459.7 263.22,459.71 263.22,459.71 		"/>
		<path class="st2" d="M107.64,403.37c5.3,3.46,22.92-29.56,23.67-28.74c-0.27-0.11-0.56-0.15-0.9-0.11
			C124,374.86,101.46,399.35,107.64,403.37z"/>
		<path class="st2" d="M131.31,374.64c0.31,0.34,0.6,0.67,0.91,1.01C132.08,375.12,131.78,374.78,131.31,374.64z"/>
		<path class="st2" d="M560.48,438.32c2.91,0.02,4.72,0.05,5.06,0.08C563.73,437.98,562.04,437.96,560.48,438.32z"/>
		<path class="st2" d="M663,452.31c0,1.13,0,2.26,0,3.39c-3.08-1.6-3.25-2.05-0.57-3.5c-23.91-4.66-48.6-9.02-72.79-11.66
			c0.44,0.59,0.68,1.26,0.72,2.01c-1.43-0.17-2.86-0.33-4.29-0.49c-0.12-0.64-0.58-1.4,0.01-1.89c-5.96-0.61-11.92-1.05-17.89-1.56
			c-1.26,1.42-13.07,7.77-12.01,1.92c1.31-1.12,2.74-1.86,4.3-2.21c-25.35-0.14-136.33,0.8-133.08,13.52
			c-0.2-0.81,124.57-7.9,130.62-7.63c47.57,2.14,93.69,11.58,140.44,19.52c0.68-1.93,13.8-0.59,6.93,1.19
			c8.52,1.47,112.05,21.8,113.35,12.71C818.65,478.29,674.76,454.61,663,452.31z"/>
		<path class="st2" d="M533.02,415.52c0.04,0.11,0.08,0.21,0.11,0.32c2.45,1.2,3.37,1.74,2.93,2.31
			c17.62-0.6,182.98,16.62,183.39,15.24C720.34,430.49,554.89,415.08,533.02,415.52z"/>
		<path class="st2" d="M386.84,443.84c0.07,0.24,57.7-14.43,64.39-15.89c-0.28-0.23-0.45-0.59-0.7-0.86
			c0.19-0.69,0.47-1.21,0.81-1.63C418.21,431,385.15,438.05,386.84,443.84z"/>
		<path class="st2" d="M451.34,425.47c2.42-0.4,4.83-0.8,7.23-1.18c0.06-0.04,0.12-0.09,0.17-0.13
			C457.72,425,453.4,422.97,451.34,425.47z"/>
		<path class="st2" d="M458.58,424.29c-1.25,0.96-2.51,1.91-3.76,2.87c20.48-4.64,42.03-6.63,62.93-8.09
			c-0.49-0.94-0.98-1.89-1.47-2.83C514.51,416.34,487.48,419.65,458.58,424.29z"/>
		<path class="st2" d="M634.92,361.7c0.31-0.02,0.62-0.02,0.92-0.01C635.54,361.68,635.24,361.69,634.92,361.7z"/>
		<path class="st2" d="M598.19,364.19c0.02,0.36,39.02-0.62,43-0.45c-1.55-1.15-3.26-1.96-5.35-2.05c-0.3-0.01-0.6-0.01-0.92,0.01
			c0.31-0.02,0.62-0.02,0.92-0.01c2.09,0.09,3.81,0.9,5.35,2.05c43.94,1.93,86.44,10.81,129.57,18.84
			c20.15,3.76,40.56,6.2,60.92,8.54c9.63,1.11,21.84,0.46,33.99,0.27c-39.33-3.59-78.99-8.3-88.84-10.18
			C771.76,380.24,596.9,348.13,598.19,364.19z"/>
		<path class="st2" d="M892.5,393.86c0.65,0.99,2.02,1.25,3.5,1.41c-0.12-0.64-0.35-1.1-0.68-1.4c-0.78-0.06-1.57-0.12-2.36-0.18
			C892.81,393.74,892.66,393.79,892.5,393.86z"/>
		<path class="st2" d="M947,395.7c4.46-0.32,7.04-0.96,7.16-2C954.06,394.67,951.25,395.31,947,395.7z"/>
		<path class="st2" d="M892.96,393.69c0.79,0.06,1.58,0.12,2.36,0.18C894.8,393.38,894.01,393.32,892.96,393.69z"/>
		<path class="st2" d="M898.21,394.08c1.68,0.48,3.29,1.03,4.8,1.68c3.57,0.12,30.78,1.18,44-0.06
			C937.46,396.39,919.29,395.6,898.21,394.08z"/>
		<path class="st2" d="M865.66,391.39c9.25,0.84,18.48,1.63,27.3,2.3c1.05-0.37,1.84-0.31,2.36,0.18c0.97,0.07,1.93,0.14,2.89,0.21
			C888.98,391.45,877.35,391.21,865.66,391.39z"/>
		<path class="st2" d="M648.65,382.29c0.12-0.07,0.23-0.14,0.35-0.2c-0.23-0.04-0.45-0.09-0.68-0.13
			C648.38,382.06,648.47,382.17,648.65,382.29z"/>
		<path class="st2" d="M625.58,379.23c0.2-1.14,8.72,0.04,22.74,2.73c-0.12-0.22,0.04-0.41,0.51-0.55c0.14,0.16,0.28,0.32,0.45,0.52
			c-0.09,0.05-0.19,0.11-0.28,0.16c65.07,12.54,244.84,56.46,268.31,53.59c0.23-0.05,0.92-0.17,1.8-0.34
			c-24.82,0.15-114.3-21.86-120.3-23.66C790.03,409.04,627.39,368.31,625.58,379.23z"/>
		<path class="st2" d="M919.11,435.34c4.08-0.03,6.41-0.65,6.34-2.06C925.49,434.03,921.55,434.88,919.11,435.34z"/>
		<path class="st2" d="M956.32,381.67c-13.73,0.58-27.54,0.96-41.27,1.16c0.52,0.39,0.04,0.81-0.37,1.19
			c4.01,5.02,32.68,0.69,40.55,0.45c-0.01-0.2,0.01-0.41,0.02-0.61c-0.36-0.27-0.73-0.54-1.1-0.81
			C954.52,382.34,955.28,381.91,956.32,381.67z"/>
		<path class="st2" d="M912.08,382.88c-0.92,0.01-1.86,0.01-2.77,0c-0.54,0.25-1.05,0.24-1.53-0.03
			c-14.23-0.61-152.02-16.8-151.6-18.19c-1.87,6.17,79.91,16.15,82.68,16.38c0.1-0.5,0.3-0.99,0.96-1.38
			c0.06,0.01,0.12,0.01,0.17,0.02l-0.05-0.1l0.01,0c1.65,0,3.29,0.21,4.91,0.64c-0.01-0.03-0.04-0.04-0.05-0.07
			c1.02,0,2.04,0,3.06,0.01c-0.13,0.41-0.25,0.81-0.38,1.22c0.05,0.13,0.04,0.22,0.07,0.33c21.63,1.58,43.39,3.33,65.09,3.21
			c-0.06-0.27-0.09-0.54-0.16-0.81C912.06,383.69,911.74,383.26,912.08,382.88z"/>
		<path class="st2" d="M974.56,380.79c-0.36,0.3-1.4,0.43-1.79,0.06c-2.02,0.07-4.04,0.17-6.06,0.3c-0.16,0.37-0.52,0.71-1,1
			c-1.35,0.82-2.82,0.89-4.38,0.24c-1.71,0.5-3.42,1-5.13,1.5c-0.01,0.18-0.01,0.36-0.03,0.55c3.88-0.12,25.06-0.42,25.12-2.97
			C979.14,380.58,976.9,380.35,974.56,380.79z"/>
		<path class="st2" d="M936.53,409.75c-12.05-0.27-122.69-3.82-122.03-7.04c-1.61,7.93,111.87,11.22,124.04,9.36
			C937.52,411.44,936.86,410.66,936.53,409.75z"/>
		<path class="st2" d="M790.86,460.97c0.14,0.53-0.05,1.19-0.51,2.05c23.14,1.61,46.34,2.55,69.53,2.76
			c1.44-0.91,2.82-0.92,4.15-0.02c5.31-0.08,10.87-0.15,16.12-1.02c0.35-0.06-23.71-1.82-31.06-1.87
			C829.61,462.74,810.29,462.49,790.86,460.97z"/>
		<path class="st2" d="M781.62,460.59c-7.12-0.22-125.89-18.66-125.94-18.49c-2.06,6.94,119.47,20.76,127.77,20.76
			C782.6,462.36,782,461.6,781.62,460.59z"/>
		<path class="st2" d="M212.2,439.94c-1.33,0.81-2.72,0.64-4.17-0.51c-25.1-3.42-80.62-13.55-62.94-49.59
			c-0.26-0.29-0.52-0.58-0.77-0.88c-5.87,3.47-7.36,13.37-5.57,19.46c1.82,1.08,2.26,2.3,1.33,3.68
			c8.86,21.71,36.98,23.95,57.03,27.26c4.2,0.69,55.97,10.34,56.6,6.11C253.98,443.73,212.76,440.01,212.2,439.94z"/>
		<path class="st2" d="M144.32,388.97c0.26,0.29,0.51,0.59,0.77,0.88c0.29-0.59,0.37-1,0.22-1.15
			C145.17,388.57,144.84,388.66,144.32,388.97z"/>
		<path class="st2" d="M230.53,471.93c-0.29,0.01-0.58,0.01-0.87,0.01C229.97,471.95,230.27,471.95,230.53,471.93z"/>
		<path class="st2" d="M219.56,471.09c3.32,0.33,6.74,0.87,10.1,0.86c-2.23-0.02-5.82-0.41-10.14-1.01
			C219.53,470.99,219.55,471.03,219.56,471.09z"/>
		<path class="st2" d="M214.13,470.15c1.88,0.29,3.69,0.55,5.39,0.79C218.88,468.38,216.19,469.36,214.13,470.15z"/>
		<path class="st2" d="M122.27,438.17c-2.04-0.24-3.74-1.61-5.75-1.74c21.54,30.88,63.96,29.52,97.11,33.91
			c0.16-0.06,0.32-0.12,0.49-0.19c-11.89-1.81-26.71-4.49-34.68-5.55C158.93,461.84,135.44,455.08,122.27,438.17z"/>
		<path class="st2" d="M115.17,434.24c0.66-0.19,1.57-0.15,2.37-0.13c0.4-0.31,0.8-0.62,1.2-0.93c-3.4-5.91,2.3-26.58,2.92-25.85
			C117.27,402.16,111.96,428.41,115.17,434.24z"/>
		<path class="st2" d="M382.16,478.07c-0.11,0.82-0.25,1.65-0.49,2.43c11.68,0.32,117.94,11.62,117.96,11.56
			C500.98,488.32,396.94,478.73,382.16,478.07z"/>
		<path class="st2" d="M299.44,476.12c-7.63-0.13-15.24-0.77-22.86-0.82c0.06,0.01,0.13,0.02,0.19,0.03l-0.01,0.02
			c-1.81-0.33-19.02-0.5-19.12,0.48c-0.44,4.51,115.11,4.41,119.54,4.56c0.36-1.23,1.34-2.03,2.95-2.4
			c-26.23-1.17-52.52-1.44-78.78-1.83C301.02,476.83,300.38,476.82,299.44,476.12z"/>
		<path class="st2" d="M472.09,468.53c0.64,0.64,0.95,1.38,0.91,2.21c4.51,0.56,68.17,13.38,68.85,11.23
			C542.7,479.29,476.84,469.18,472.09,468.53z"/>
		<path class="st2" d="M366.29,462.73c-0.14,3.01,93.34,7.04,96.29,7.29c-0.07-0.74,0.05-1.66,0.53-2.24
			C461.66,467.64,366.48,458.19,366.29,462.73z"/>
		<path class="st2" d="M76.75,402c1.88,0.81,4.67-4.22,5.84-5.39c-0.43,0.28-0.85,0.56-1.26,0.88c-0.36-2.91,1.61-4.48,4.21-5.68
			c7.79-15.42,20.89-22.56,35.55-29.47c-0.6-0.76-1.22-1.49-1.86-2.2C113.15,362.61,68.52,398.47,76.75,402z"/>
		<path class="st2" d="M123.2,358.99c0.43,0.51,0.86,1.02,1.27,1.54c0.01-0.01,0.03-0.02,0.04-0.03
			C125.72,359.32,124.01,358.88,123.2,358.99z"/>
		<path class="st2" d="M119.22,360.15c0.64,0.71,1.26,1.45,1.86,2.2c1.24-0.41,2.37-1.02,3.39-1.82c-0.41-0.52-0.84-1.02-1.27-1.54
			C121.79,359.18,120.54,359.62,119.22,360.15z"/>
		<path class="st2" d="M97.86,394.42c-0.21-0.35-0.33-0.72-0.48-1.09c-0.15-0.01-0.31-0.02-0.5,0.01
			c-24.04,3.83,3.89,51.64,6.31,49.96c1.13-0.78-9.88-18.3-10.59-21.07C89.61,410.64,93.34,404,97.86,394.42z"/>
		<path class="st2" d="M50.3,403.48c1.66,0.25,4.44-7.15,5.36-8.67c-0.2-0.16-0.39-0.33-0.59-0.49c0.36-0.38,0.67-0.41,0.92-0.08
			c6.02-11.73,12.5-21.19,22.92-29.52c2.07-1.51,26.82-14.03,25.93-16.03C99.35,336.31,37.7,401.63,50.3,403.48z"/>
	</g>
</g>
</svg>
